<svg id="Layer_1" data-name="Layer 1" xmlns="http://www.w3.org/2000/svg" width="1000" height="1000" viewBox="0 0 1000 1000">
  <defs>
    <style>
      .cls-1 {
        fill: #fff;
      }
    </style>
  </defs>
  <title>Ts</title>
  <circle cx="500.46" cy="500.33" r="493.54"/>
  <path d="M397.1,716.28h48.71V302.78H324.56v82.7H252.73V245.31H726.5V385.48H654.67v-82.7H514.5v413.5h54.67v60.27H397.1Z"/>
  <polygon class="cls-1" points="252.73 245.31 273.85 224.19 747.69 224.12 726.5 245.31 252.73 245.31"/>
  <polygon class="cls-1" points="726.5 245.31 747.69 224.12 748.2 363.78 726.5 385.48 726.5 245.31"/>
  <polygon class="cls-1" points="324.56 385.48 345.72 364.32 345.78 302.78 324.56 302.78 324.56 385.48"/>
  <polygon class="cls-1" points="514.18 716.28 535.31 716.28 535.4 302.78 514.18 302.78 514.18 716.28"/>
  <polygon class="cls-1" points="569.16 716.28 590.33 695.11 514.18 695.11 514.18 716.28 569.16 716.28"/>
  <polygon class="cls-1" points="590.33 695.11 590.32 755.39 569.16 776.55 569.17 716.28 590.33 695.11"/>
  <polygon class="cls-1" points="397.1 716.28 418.32 695.07 445.81 695.07 445.81 716.28 397.1 716.28"/>
</svg>
