<svg id="Layer_1" data-name="Layer 1" xmlns="http://www.w3.org/2000/svg" width="1000" height="1000" viewBox="0 0 1000 1000">
  <defs>
    <style>
      .cls-1 {
        fill: #fff;
      }
    </style>
  </defs>
  <title>Ts</title>
  <path class="cls-1" d="M319.58,878.24h85.24V154.61H192.64V299.34H66.93V54H896v245.3H770.32V154.61H525V878.24h95.67V983.71H319.58Z"/>
  <polygon points="66.93 54.04 103.89 17.08 933.11 16.96 896.03 54.04 66.93 54.04"/>
  <polygon points="896.03 54.04 933.11 16.96 934 261.37 896.03 299.33 896.03 54.04"/>
  <polygon points="192.64 299.33 229.66 262.31 229.78 154.61 192.64 154.61 192.64 299.33"/>
  <polygon points="524.47 878.24 561.45 878.24 561.6 154.61 524.47 154.61 524.47 878.24"/>
  <polygon points="620.68 878.24 657.73 841.19 524.47 841.19 524.47 878.24 620.68 878.24"/>
  <polygon points="657.73 841.19 657.71 946.68 620.68 983.71 620.7 878.24 657.73 841.19"/>
  <polygon points="319.58 878.24 356.71 841.11 404.82 841.11 404.82 878.24 319.58 878.24"/>
</svg>
